<svg id="Capa_1" enable-background="new 0 0 511.991 511.991" height="512" viewBox="0 0 511.991 511.991" width="512" xmlns="http://www.w3.org/2000/svg"><g><path d="m437.621 126.929c10.905-1.882 20.216-8.984 24.907-18.999 5.547-11.842 14.179-17.842 25.661-17.842 15.529 0 24.646-12.216 23.74-24.403l-1.493-20.057c-1.035-13.889-14.872-23.077-28.087-18.626l-13.897 4.687-3.99-13.841 1.761-.594c3.925-1.324 6.033-5.579 4.709-9.504-1.323-3.925-5.58-6.034-9.504-4.709l-16.518 5.572c-3.925 1.324-6.033 5.579-4.709 9.504 1.056 3.13 3.976 5.104 7.105 5.104 1.201 0 1.928-.237 2.928-.574l3.99 13.841-27.867 9.4-4.089-14.184 1.76-.594c3.926-1.323 6.034-5.578 4.71-9.503-1.323-3.926-5.58-6.034-9.503-4.71l-16.519 5.571c-3.926 1.323-6.034 5.578-4.71 9.503 1.056 3.131 3.976 5.105 7.105 5.105 1.203 0 1.929-.237 2.929-.575l4.089 14.184-7.559 2.55c-12.708 4.285-21.913 15.175-24.022 28.421l-1.58 9.929-159.693 159.694c-11.881-13.529-11.149-27.953 2.181-43.917 10.445-12.515 1.822-31.521-14.511-32.057-40.178-1.326-53.997 27.405-88.12 91.177-1.957 3.65-.583 8.196 3.068 10.152 3.649 1.958 8.197.583 10.152-3.068 35.667-66.638 44.885-84.209 74.408-83.269 3.863.126 5.931 4.523 3.487 7.451-18.272 21.884-18.6 44.904-1.285 64.149l-15.169 15.169-23.789 23.789c-7.061 7.062-15.758 12.583-25.151 15.97l-12.644 4.558c-14.208 5.121-24.846 16.78-28.812 31.13-1.242.563-2.409 1.341-3.429 2.36l-16.728 16.728c-4.551 4.552-4.55 11.957.001 16.509l6.779 6.779c2.93 2.928 7.678 2.928 10.607 0 2.929-2.93 2.929-7.678 0-10.607l-4.428-4.427 12.021-12.021 33.603 33.603-12.021 12.022-4.427-4.428c-2.93-2.928-7.678-2.928-10.607 0-2.929 2.93-2.929 7.678 0 10.607l6.779 6.778c4.486 4.49 11.744 4.589 16.349.147 3.662 8.305 5.647 17.334 5.789 26.562.178 11.566 2.135 22.736 5.813 33.296-5.253 2.809-10.928 4.943-16.921 6.289-22.244 5-45.164-1.657-61.31-17.804l-36.517-36.517c-16.157-16.156-22.814-39.096-17.808-61.362 5.041-22.421 21.011-40.436 42.718-48.188 18.851-6.733 34.775-15.268 47.335-25.366 3.228-2.596 3.74-7.316 1.145-10.545s-7.316-3.742-10.545-1.145c-11.25 9.047-25.711 16.761-42.979 22.929-26.577 9.493-46.132 31.559-52.308 59.024-6.141 27.313 2.021 55.446 21.835 75.261l36.517 36.517c19.824 19.823 47.943 27.957 75.205 21.832 27.233-6.119 49.502-25.518 59.104-52.372 3.541-9.905 7.56-18.832 12.042-26.763 9.86-17.448 21.964-30.074 36.164-37.683 12.186-6.522 20.144-10.764 27.396-14.718 15.508-8.457 26.346-23.708 28.961-40.818 1.35-12.152-9.113-18.643-18.088-15.869-15.89 4.911-31.177 1.14-43.404-8.707l180.07-180.07zm-153.413 206.931c-2.205 12.036-10.033 22.734-21.124 28.781-6.909 3.768-13.478 7.269-27.298 14.666-24.035 12.879-42.623 37.311-55.247 72.616-3.865 10.81-10.268 20.196-18.485 27.524-2.312-7.846-3.545-16.068-3.676-24.553-.203-13.182-3.489-26.045-9.553-37.551l5.653-5.653c4.481-4.481 4.632-11.873 0-16.509l-36.896-36.896c2.704-9.687 9.734-17.305 19.406-20.791l12.645-4.558c11.455-4.13 22.062-10.864 30.672-19.474l15.534-15.535 19.939 19.939c2.308 2.307 5.704 3.666 9.246 3.369 1.34 1.232 2.825 2.483 4.396 3.696 10.225 7.897 29.486 18.192 54.788 10.929zm-60.176-30.953-17.585-17.585s18.14-18.14 18.14-18.14l2.861-2.861 17.585 17.585zm31.608-31.608-17.585-17.585 21.128-21.128 17.585 17.585zm31.733-31.734-17.585-17.585 21.127-21.127 17.585 17.585zm31.735-31.734-17.586-17.585 21.128-21.128 17.585 17.586zm31.733-31.734-17.585-17.586 21.127-21.127 17.586 17.585zm31.735-31.734-17.586-17.585 21.003-21.003c9.448 9.448 6.836 6.837 17.585 17.586zm11.424-51.793 1.361-8.555c1.229-7.721 6.595-14.068 14.003-16.566l77.778-26.234c3.913-1.322 8.026 1.403 8.334 5.527l1.493 20.056c.345 4.622-3.413 8.368-8.051 8.296-17.623-.275-31.853 9.136-39.976 26.473-2.612 5.577-7.799 9.532-13.874 10.581l-18.331 3.162c-8.377-8.379-14.556-14.559-22.737-22.74z"/><path d="m191.424 325.406c-2.93-2.928-7.678-2.928-10.607 0-2.929 2.93-2.929 7.678 0 10.607l10.357 10.357c2.931 2.929 7.678 2.928 10.607 0 2.929-2.93 2.929-7.678 0-10.607z"/><path d="m163.613 347.589c-2.928-2.928-7.677-2.929-10.606.001-2.929 2.929-2.929 7.678.001 10.606l13.172 13.171c2.928 2.928 7.676 2.929 10.606-.001 2.929-2.929 2.929-7.678-.001-10.606z"/></g></svg>