<?xml version="1.0"?>
<svg xmlns="http://www.w3.org/2000/svg" width="512" height="512" viewBox="0 0 512 512"><g><path d="M256,320a72,72,0,1,0,72,72A72.083,72.083,0,0,0,256,320Zm0,128a56,56,0,1,1,56-56A56.062,56.062,0,0,1,256,448Z"/><path d="M347.33,301.54c-18.76-33.28-42.47-56.17-67.33-65.2V120h8a8,8,0,0,0,7.97-7.34L298.03,88H304a8,8,0,0,0,0-16h-4.64l1.33-16H304a8,8,0,0,0,0-16h-1.97l.14-1.67A28,28,0,0,0,274.26,8H237.74a28,28,0,0,0-27.91,30.33l.14,1.67H208a8,8,0,0,0,0,16h3.31l1.33,16H208a8,8,0,0,0,0,16h5.97l2.06,24.66A8,8,0,0,0,224,120h8V236.34c-24.86,9.03-48.57,31.92-67.33,65.2C146.72,333.41,136,370.22,136,400c0,31.86,12.38,58.64,35.79,77.44C193.14,494.57,223.04,504,256,504s62.86-9.43,84.21-26.56C363.62,458.64,376,431.86,376,400,376,370.22,365.28,333.41,347.33,301.54ZM231.36,104l-5.58-67a12.011,12.011,0,0,1,11.96-13h36.52a12.011,12.011,0,0,1,11.96,13l-5.58,67ZM264,120V288H248V120Zm66.19,344.96C311.68,479.82,285.33,488,256,488s-55.68-8.18-74.19-23.04C162.31,449.31,152,426.84,152,400c0-26.75,10.2-61.46,26.62-90.6,15.18-26.96,34.2-46.67,53.38-55.73V296a8,8,0,0,0,8,8h32a8,8,0,0,0,8-8V253.67c19.18,9.06,38.2,28.77,53.38,55.73C349.8,338.54,360,373.25,360,400,360,426.84,349.69,449.31,330.19,464.96Z"/><path d="M296,416a8,8,0,0,1-8,8,8,8,0,0,1-16,0h-8a8,8,0,0,1-16,0h-8a8,8,0,0,1-16,0,8,8,0,0,1,0-16V368a8,8,0,0,1,16,0v40h8V368a8,8,0,0,1,16,0v40h8V368a8,8,0,0,1,16,0v40A8,8,0,0,1,296,416Z"/></g></svg>
